<svg width="24" height="24" viewBox="0 0 24 24" fill="none" xmlns="http://www.w3.org/2000/svg">
<path fill-rule="evenodd" clip-rule="evenodd" d="M18.7411 8.02527C18.9723 6.73132 18.1093 5.71537 17.1085 4.97488C15.7071 3.9425 14.12 3.32712 12.4874 2.84947V19.9172C13.2115 19.2854 13.9355 18.5765 14.628 17.8537C16.1064 16.2211 17.4774 14.5569 18.0473 12.5554C18.2786 11.6468 18.1547 10.6144 17.3852 9.99779C18.0486 9.47338 18.6488 8.82641 18.7411 8.02527ZM15.9232 13.9251C15.4152 14.8488 14.7215 15.6967 13.9052 16.4827L13.89 11.6001C14.4448 11.1995 15.0146 10.8457 15.7071 10.7838C15.9838 10.7838 16.2303 10.876 16.416 11.0921C17.0314 12.0613 16.3073 13.0772 15.9232 13.9251ZM17.3246 7.63987C17.1856 8.41068 16.3389 8.85674 15.7374 9.18023C15.1372 9.48855 14.5206 9.73495 13.8888 9.9662V4.97488C14.8592 5.26805 15.7374 5.76086 16.5689 6.34592C16.9543 6.6694 17.4787 7.06997 17.3246 7.63987Z" fill="white"/>
<path fill-rule="evenodd" clip-rule="evenodd" d="M11.225 19.7934V2.78755L9.85401 3.49644V12.616C9.79209 12.8776 9.97784 13.2782 9.68468 13.402C9.6076 13.4172 9.54568 13.3868 9.51535 13.3249C8.93029 11.1224 8.68389 8.79608 8.57521 6.4091L8.52846 4.32918L7.21935 5.29964V5.85437C7.29643 8.05686 7.45059 10.2139 7.86632 12.2774L7.34318 12.8624C7.14353 12.5857 7.0197 12.2925 6.8807 11.9994C6.21856 10.2429 5.97216 8.31843 5.87991 6.33075L4.74012 7.17738C4.84753 10.1962 5.41742 13.0456 7.25094 15.3101C7.60475 14.9095 7.95984 14.4938 8.31365 14.1084C8.49814 14.9247 8.75971 15.7106 9.06803 16.4802C9.57601 17.668 10.1459 18.8697 11.225 19.7934Z" fill="white"/>
<path fill-rule="evenodd" clip-rule="evenodd" d="M21.7144 5.02164L19.666 4.51366L19.2958 3.12747L17.2007 2.63466L16.7698 1.12462L11.8253 0L6.97294 1.12462L6.54205 2.63466L4.44696 3.12747C4.30796 3.60512 4.18539 4.0676 4.06155 4.52883L2.01322 5.02164C1.85906 9.38114 3.06077 13.2162 5.23294 16.6356C6.82005 19.0845 9.20703 21.6724 11.8253 22.9512C13.5969 22.1046 15.1675 20.6868 16.5853 19.0997C20.0199 15.1268 21.8989 10.4742 21.7144 5.02164ZM15.6768 18.2075C14.5522 19.4712 13.2885 20.7184 11.872 21.4424C10.5161 20.7651 9.33086 19.5937 8.25173 18.4085C5.44775 15.1281 3.5839 11.4611 3.27684 7.16348C3.24651 6.80967 3.23009 6.46975 3.24652 6.10077L4.98653 5.7002L5.38709 4.26726L7.52767 3.75928L7.54284 3.71253L7.92824 2.23409L11.8101 1.32554L15.8145 2.23409L16.1999 3.74412L18.3721 4.26726L18.7423 5.7002L20.4988 6.10077C20.4507 10.7825 18.5869 14.7098 15.6768 18.2075Z" fill="white"/>
<path fill-rule="evenodd" clip-rule="evenodd" d="M16.3225 22.7819C16.5537 22.7667 16.7079 22.6429 16.7079 22.3813C16.7079 22.0881 16.5234 21.9504 16.1683 21.9504H15.6136V23.4288H15.86V22.797H16.0913L16.4767 23.4288H16.7382L16.3225 22.7819ZM15.8613 22.5974V22.1501H16.1544C16.2934 22.1501 16.4628 22.1804 16.4628 22.3661C16.4628 22.5658 16.3086 22.5974 16.1241 22.5974H15.8613Z" fill="white"/>
<path fill-rule="evenodd" clip-rule="evenodd" d="M16.138 21.4728C15.4443 21.4728 14.8744 22.0426 14.8744 22.7364C14.8744 23.4301 15.4443 24 16.138 24C16.8317 24 17.4016 23.4301 17.4016 22.7364C17.4016 22.0426 16.8317 21.4728 16.138 21.4728ZM16.138 23.8762C15.5062 23.8762 14.9982 23.3682 14.9982 22.7364C14.9982 22.1046 15.5062 21.5966 16.138 21.5966C16.7698 21.5966 17.2778 22.1046 17.2778 22.7364C17.2778 23.3669 16.7698 23.8762 16.138 23.8762Z" fill="white"/>
</svg>
